<svg width="112" height="35" viewBox="0 0 112 35" fill="none" xmlns="http://www.w3.org/2000/svg">
<rect x="0.5" y="0.5" width="111" height="34" rx="7.5" stroke="white"/>
<path d="M44.258 17.002C44.7807 17.0953 45.224 17.3707 45.588 17.828C45.952 18.2853 46.134 18.8033 46.134 19.382C46.134 19.8767 46.0033 20.3247 45.742 20.726C45.49 21.118 45.1213 21.4307 44.636 21.664C44.1507 21.888 43.586 22 42.942 22H39.05V12.27H42.76C43.4227 12.27 43.992 12.382 44.468 12.606C44.944 12.83 45.3033 13.1333 45.546 13.516C45.7887 13.8893 45.91 14.3093 45.91 14.776C45.91 15.336 45.7607 15.8027 45.462 16.176C45.1633 16.5493 44.762 16.8247 44.258 17.002ZM40.646 16.358H42.62C43.1427 16.358 43.5487 16.2413 43.838 16.008C44.1367 15.7653 44.286 15.42 44.286 14.972C44.286 14.5333 44.1367 14.1927 43.838 13.95C43.5487 13.698 43.1427 13.572 42.62 13.572H40.646V16.358ZM42.802 20.698C43.3433 20.698 43.768 20.5673 44.076 20.306C44.384 20.0447 44.538 19.6807 44.538 19.214C44.538 18.738 44.3747 18.36 44.048 18.08C43.7213 17.8 43.2873 17.66 42.746 17.66H40.646V20.698H42.802ZM48.6804 13.264C48.391 13.264 48.1484 13.166 47.9524 12.97C47.7564 12.774 47.6584 12.5313 47.6584 12.242C47.6584 11.9527 47.7564 11.71 47.9524 11.514C48.1484 11.318 48.391 11.22 48.6804 11.22C48.9604 11.22 49.1984 11.318 49.3944 11.514C49.5904 11.71 49.6884 11.9527 49.6884 12.242C49.6884 12.5313 49.5904 12.774 49.3944 12.97C49.1984 13.166 48.9604 13.264 48.6804 13.264ZM49.4644 14.286V22H47.8684V14.286H49.4644ZM54.9058 22.126C54.1778 22.126 53.5198 21.9627 52.9318 21.636C52.3438 21.3 51.8818 20.8333 51.5458 20.236C51.2098 19.6293 51.0418 18.9293 51.0418 18.136C51.0418 17.352 51.2144 16.6567 51.5598 16.05C51.9051 15.4433 52.3764 14.9767 52.9738 14.65C53.5711 14.3233 54.2384 14.16 54.9758 14.16C55.7131 14.16 56.3804 14.3233 56.9778 14.65C57.5751 14.9767 58.0464 15.4433 58.3918 16.05C58.7371 16.6567 58.9098 17.352 58.9098 18.136C58.9098 18.92 58.7324 19.6153 58.3778 20.222C58.0231 20.8287 57.5378 21.3 56.9218 21.636C56.3151 21.9627 55.6431 22.126 54.9058 22.126ZM54.9058 20.74C55.3164 20.74 55.6991 20.642 56.0538 20.446C56.4178 20.25 56.7118 19.956 56.9358 19.564C57.1598 19.172 57.2718 18.696 57.2718 18.136C57.2718 17.576 57.1644 17.1047 56.9498 16.722C56.7351 16.33 56.4504 16.036 56.0958 15.84C55.7411 15.644 55.3584 15.546 54.9478 15.546C54.5371 15.546 54.1544 15.644 53.7998 15.84C53.4544 16.036 53.1791 16.33 52.9738 16.722C52.7684 17.1047 52.6658 17.576 52.6658 18.136C52.6658 18.9667 52.8758 19.6107 53.2958 20.068C53.7251 20.516 54.2618 20.74 54.9058 20.74ZM59.9555 18.108C59.9555 17.3333 60.1142 16.6473 60.4315 16.05C60.7582 15.4527 61.1968 14.9907 61.7475 14.664C62.3075 14.328 62.9282 14.16 63.6095 14.16C64.1135 14.16 64.6082 14.272 65.0935 14.496C65.5882 14.7107 65.9802 15 66.2695 15.364V11.64H67.8795V22H66.2695V20.838C66.0082 21.2113 65.6442 21.5193 65.1775 21.762C64.7202 22.0047 64.1928 22.126 63.5955 22.126C62.9235 22.126 62.3075 21.958 61.7475 21.622C61.1968 21.2767 60.7582 20.8007 60.4315 20.194C60.1142 19.578 59.9555 18.8827 59.9555 18.108ZM66.2695 18.136C66.2695 17.604 66.1575 17.142 65.9335 16.75C65.7188 16.358 65.4342 16.0593 65.0795 15.854C64.7248 15.6487 64.3422 15.546 63.9315 15.546C63.5208 15.546 63.1382 15.6487 62.7835 15.854C62.4288 16.05 62.1395 16.344 61.9155 16.736C61.7008 17.1187 61.5935 17.576 61.5935 18.108C61.5935 18.64 61.7008 19.1067 61.9155 19.508C62.1395 19.9093 62.4288 20.2173 62.7835 20.432C63.1475 20.6373 63.5302 20.74 63.9315 20.74C64.3422 20.74 64.7248 20.6373 65.0795 20.432C65.4342 20.2267 65.7188 19.928 65.9335 19.536C66.1575 19.1347 66.2695 18.668 66.2695 18.136ZM69.4438 18.108C69.4438 17.3333 69.6024 16.6473 69.9198 16.05C70.2464 15.4527 70.6851 14.9907 71.2358 14.664C71.7958 14.328 72.4118 14.16 73.0838 14.16C73.6904 14.16 74.2178 14.2813 74.6658 14.524C75.1231 14.7573 75.4871 15.0513 75.7578 15.406V14.286H77.3678V22H75.7578V20.852C75.4871 21.216 75.1184 21.5193 74.6518 21.762C74.1851 22.0047 73.6531 22.126 73.0558 22.126C72.3931 22.126 71.7864 21.958 71.2358 21.622C70.6851 21.2767 70.2464 20.8007 69.9198 20.194C69.6024 19.578 69.4438 18.8827 69.4438 18.108ZM75.7578 18.136C75.7578 17.604 75.6458 17.142 75.4218 16.75C75.2071 16.358 74.9224 16.0593 74.5678 15.854C74.2131 15.6487 73.8304 15.546 73.4198 15.546C73.0091 15.546 72.6264 15.6487 72.2718 15.854C71.9171 16.05 71.6278 16.344 71.4038 16.736C71.1891 17.1187 71.0818 17.576 71.0818 18.108C71.0818 18.64 71.1891 19.1067 71.4038 19.508C71.6278 19.9093 71.9171 20.2173 72.2718 20.432C72.6358 20.6373 73.0184 20.74 73.4198 20.74C73.8304 20.74 74.2131 20.6373 74.5678 20.432C74.9224 20.2267 75.2071 19.928 75.4218 19.536C75.6458 19.1347 75.7578 18.668 75.7578 18.136ZM81.3261 15.588V19.858C81.3261 20.1473 81.3914 20.3573 81.5221 20.488C81.6621 20.6093 81.8954 20.67 82.2221 20.67H83.2021V22H81.9421C81.2234 22 80.6727 21.832 80.2901 21.496C79.9074 21.16 79.7161 20.614 79.7161 19.858V15.588H78.8061V14.286H79.7161V12.368H81.3261V14.286H83.2021V15.588H81.3261ZM84.141 18.108C84.141 17.3333 84.2997 16.6473 84.617 16.05C84.9437 15.4527 85.3824 14.9907 85.933 14.664C86.493 14.328 87.109 14.16 87.781 14.16C88.3877 14.16 88.915 14.2813 89.363 14.524C89.8204 14.7573 90.1844 15.0513 90.455 15.406V14.286H92.065V22H90.455V20.852C90.1844 21.216 89.8157 21.5193 89.349 21.762C88.8824 22.0047 88.3504 22.126 87.753 22.126C87.0904 22.126 86.4837 21.958 85.933 21.622C85.3824 21.2767 84.9437 20.8007 84.617 20.194C84.2997 19.578 84.141 18.8827 84.141 18.108ZM90.455 18.136C90.455 17.604 90.343 17.142 90.119 16.75C89.9044 16.358 89.6197 16.0593 89.265 15.854C88.9104 15.6487 88.5277 15.546 88.117 15.546C87.7064 15.546 87.3237 15.6487 86.969 15.854C86.6144 16.05 86.325 16.344 86.101 16.736C85.8864 17.1187 85.779 17.576 85.779 18.108C85.779 18.64 85.8864 19.1067 86.101 19.508C86.325 19.9093 86.6144 20.2173 86.969 20.432C87.333 20.6373 87.7157 20.74 88.117 20.74C88.5277 20.74 88.9104 20.6373 89.265 20.432C89.6197 20.2267 89.9044 19.928 90.119 19.536C90.343 19.1347 90.455 18.668 90.455 18.136Z" fill="white"/>
<path d="M25.5 21.25L20.8125 16.5625L22.125 15.2031L24.5625 17.6406V10H26.4375V17.6406L28.875 15.2031L30.1875 16.5625L25.5 21.25ZM18 25V20.3125H19.875V23.125H31.125V20.3125H33V25H18Z" fill="white"/>
</svg>
