<svg width="34" height="35" viewBox="0 0 34 35" fill="none" xmlns="http://www.w3.org/2000/svg">
<g id="Group 4">
<rect id="Rectangle 5" x="0.5" y="0.5" width="33" height="34" rx="7.5" stroke="white"/>
<g id="Group 3">
<path id="Vector" d="M21.8141 12.1825C21.123 11.488 20.2999 10.9373 19.3927 10.5626C18.4855 10.1879 17.5124 9.99664 16.5301 10C12.4146 10 9.0603 13.3375 9.0603 17.4325C9.0603 18.745 9.40704 20.02 10.0553 21.145L9 25L12.9573 23.965C14.0503 24.5575 15.2789 24.8725 16.5301 24.8725C20.6457 24.8725 24 21.535 24 17.44C24 15.4525 23.2236 13.585 21.8141 12.1825ZM16.5301 23.6125C15.4146 23.6125 14.3216 23.3125 13.3643 22.75L13.1382 22.615L10.7864 23.23L11.4121 20.95L11.2613 20.7175C10.6415 19.7327 10.3124 18.5945 10.3116 17.4325C10.3116 14.0275 13.1005 11.2525 16.5226 11.2525C18.1809 11.2525 19.7412 11.8975 20.9095 13.0675C21.4881 13.6405 21.9465 14.322 22.2583 15.0726C22.5702 15.8232 22.7292 16.6279 22.7261 17.44C22.7412 20.845 19.9523 23.6125 16.5301 23.6125ZM19.9372 18.9925C19.7487 18.9025 18.8291 18.4525 18.6633 18.385C18.4899 18.325 18.3693 18.295 18.2412 18.475C18.1131 18.6625 17.7588 19.0825 17.6533 19.2025C17.5477 19.33 17.4347 19.345 17.2462 19.2475C17.0578 19.1575 16.4548 18.955 15.7462 18.325C15.1884 17.83 14.8191 17.2225 14.706 17.035C14.6005 16.8475 14.691 16.75 14.7889 16.6525C14.8719 16.57 14.9774 16.435 15.0678 16.33C15.1583 16.225 15.196 16.1425 15.2563 16.0225C15.3166 15.895 15.2864 15.79 15.2412 15.7C15.196 15.61 14.8191 14.695 14.6683 14.32C14.5176 13.96 14.3593 14.005 14.2462 13.9975H13.8844C13.7563 13.9975 13.5603 14.0425 13.3869 14.23C13.2211 14.4175 12.7387 14.8675 12.7387 15.7825C12.7387 16.6975 13.4095 17.5825 13.5 17.7025C13.5905 17.83 14.8191 19.705 16.6884 20.5075C17.1332 20.7025 17.4799 20.815 17.7513 20.8975C18.196 21.04 18.603 21.0175 18.9271 20.9725C19.2889 20.92 20.0352 20.5225 20.1859 20.0875C20.3442 19.6525 20.3442 19.285 20.2915 19.2025C20.2387 19.12 20.1256 19.0825 19.9372 18.9925Z" fill="white"/>
</g>
</g>
</svg>
